<svg width="33" height="33" viewBox="0 0 33 33" fill="none" xmlns="http://www.w3.org/2000/svg">
<path d="M16.5097 8.89157e-06C12.3327 -5.24164e-05 8.32256 1.69148 5.3424 4.71059C5.29806 4.75362 5.2459 4.78589 5.20156 4.83163C5.15722 4.87736 5.12594 4.93117 5.0816 4.9796C2.15411 8.05115 0.509431 12.1834 0.500041 16.4908C0.49063 20.7981 2.11724 24.938 5.03128 28.0231C7.94534 31.1083 11.915 32.8932 16.0895 32.9953C20.2639 33.0977 24.3113 31.509 27.364 28.5701C27.5229 28.443 27.6735 28.3055 27.8151 28.1586C27.8595 28.1154 27.8908 28.0617 27.9326 28.0133C30.1358 25.695 31.6262 22.7569 32.2166 19.5681C32.8067 16.3791 32.4707 13.0814 31.2504 10.0888C30.0302 7.09622 27.9802 4.54217 25.3576 2.74728C22.735 0.952387 19.6569 -0.00336305 16.5097 8.89157e-06ZM16.5097 1.30476C20.1948 1.30642 23.7441 2.73943 26.4511 5.31856L22.2472 9.66057C17.9779 5.43424 13.1741 3.09375 9.46818 3.15563C11.6267 1.93658 14.0488 1.29992 16.5097 1.30476ZM27.0041 27.1308L26.8242 27.3164C23.9553 30.0605 17.1747 27.8357 11.6667 22.4068L13.2315 20.7926C14.2522 21.6137 15.5286 22.0214 16.8204 21.9397C18.1122 21.8577 19.3306 21.2914 20.2463 20.3477C21.1618 19.404 21.7113 18.1476 21.7918 16.8151C21.872 15.4825 21.4776 14.1656 20.6823 13.1121L22.2472 11.498C27.5152 17.185 29.672 24.1932 27.012 27.1361L27.0041 27.1308ZM6.01265 5.85122L6.17173 5.68444C7.00366 4.87736 8.17204 4.47921 9.56207 4.47921C12.9029 4.47921 17.4564 6.72286 21.3605 10.5725L19.7958 12.1867C18.8607 11.4231 17.7021 11.0096 16.5097 11.0138C15.5109 11.0118 14.5317 11.3005 13.6848 11.8466C12.8379 12.3928 12.1575 13.1743 11.7217 14.1014C11.286 15.0285 11.1125 16.0636 11.2213 17.0878C11.3302 18.112 11.7168 19.0837 12.3369 19.8914L10.7722 21.5056C5.51713 15.8077 3.36035 8.79163 6.02047 5.85662L6.01265 5.85122ZM20.5599 16.491C20.5605 17.6001 20.1344 18.664 19.3748 19.4489C18.6152 20.2339 17.5849 20.6755 16.5097 20.6769C15.4378 20.6671 14.4124 20.2235 13.6545 19.4416C12.8965 18.6597 12.4664 17.6021 12.4569 16.4964C12.4583 15.3881 12.8857 14.3256 13.6455 13.5419C14.4052 12.7582 15.4352 12.3172 16.5097 12.3158C17.3639 12.3171 18.1954 12.5999 18.8829 13.1229C19.2254 13.3799 19.5273 13.6903 19.7774 14.0429C20.2875 14.753 20.5643 15.6126 20.5676 16.4964L20.5599 16.491ZM3.57419 9.22745C3.51422 13.0449 5.78313 18.0002 9.88023 22.4095L5.6736 26.7489C3.59262 24.4216 2.27195 21.4797 1.89764 18.3372C1.52334 15.1948 2.11429 12.0104 3.58725 9.23282L3.57419 9.22745ZM16.5097 31.6881C12.824 31.6872 9.27401 30.253 6.56813 27.6716L10.7722 23.3377C14.9866 27.5101 19.7253 29.8425 23.4052 29.8425H23.5512C21.3914 31.0576 18.9699 31.6923 16.5097 31.6881ZM23.1365 10.5806L27.343 6.2413C29.4262 8.56698 30.7494 11.5083 31.126 14.6507C31.5026 17.7932 30.9138 20.9784 29.4426 23.7573C29.5104 19.9398 27.2414 14.9791 23.1443 10.5806H23.1365Z" fill="#3386FF"/>
</svg>
