<svg width="150" height="50" viewBox="0 0 200 192" fill="none" xmlns="http://www.w3.org/2000/svg">
  <g>
    <path d="M94.6828 16C73.5986 15.9997 53.357 24.2769 38.3141 39.0504C38.0903 39.261 37.827 39.4189 37.6032 39.6427C37.3794 39.8665 37.2215 40.1298 36.9977 40.3668C22.2207 55.3969 13.9189 75.6172 13.8715 96.6948C13.824 117.772 22.0346 138.03 36.7437 153.126C51.4529 168.223 71.4902 176.957 92.5618 177.457C113.633 177.958 134.063 170.184 149.472 155.803C150.274 155.181 151.034 154.508 151.749 153.789C151.973 153.578 152.131 153.315 152.342 153.078C163.463 141.734 170.986 127.357 173.966 111.753C176.945 96.1485 175.249 80.0115 169.089 65.3678C162.93 50.7241 152.582 38.2263 139.344 29.4433C126.106 20.6603 110.569 15.9835 94.6828 16ZM94.6828 22.3846C113.284 22.3927 131.2 29.4049 144.864 42.0254L123.644 63.2723C102.094 42.5915 77.8459 31.1387 59.1397 31.4415C70.0352 25.4763 82.2613 22.3609 94.6828 22.3846ZM147.655 148.76L146.747 149.668C132.266 163.096 98.0396 152.209 70.237 125.644L78.1355 117.745C83.2878 121.763 89.7305 123.758 96.2515 123.358C102.772 122.957 108.922 120.186 113.544 115.568C118.165 110.95 120.939 104.802 121.345 98.2818C121.75 91.7611 119.759 85.3169 115.745 80.1618L123.644 72.2634C150.235 100.092 161.122 134.385 147.695 148.786L147.655 148.76ZM41.6973 44.6319L42.5003 43.8158C46.6996 39.8665 52.5971 37.9182 59.6136 37.9182C76.4768 37.9182 99.4614 48.8971 119.168 67.7349L111.27 75.6334C106.55 71.8971 100.702 69.8736 94.6828 69.8939C89.6411 69.8842 84.6989 71.2968 80.4239 73.9694C76.1489 76.642 72.7143 80.4663 70.5148 85.0029C68.3152 89.5394 67.4398 94.6045 67.9891 99.6161C68.5384 104.628 70.4902 109.383 73.6202 113.335L65.7218 121.234C39.1961 93.3523 28.3094 59.0203 41.7368 44.6583L41.6973 44.6319ZM115.127 96.696C115.13 102.123 112.979 107.329 109.145 111.17C105.311 115.011 100.11 117.172 94.6828 117.179C89.2721 117.131 84.0967 114.96 80.2706 111.134C76.4446 107.308 74.2739 102.133 74.2258 96.7223C74.2327 91.2989 76.3903 86.0996 80.2252 82.2647C84.0601 78.4298 89.2594 76.2722 94.6828 76.2653C98.9947 76.2716 103.192 77.6553 106.662 80.2145C108.391 81.4721 109.915 82.991 111.177 84.7166C113.752 88.1914 115.149 92.3977 115.166 96.7223L115.127 96.696ZM29.3888 61.1529C29.0861 79.8327 40.5388 104.081 61.2196 125.657L39.9859 146.891C29.4818 135.503 22.8155 121.107 20.9261 105.73C19.0368 90.353 22.0197 74.771 29.4547 61.1792L29.3888 61.1529ZM94.6828 171.06C76.0785 171.056 58.1596 164.038 44.5012 151.406L65.7218 130.199C86.9949 150.616 110.914 162.029 129.489 162.029H130.226C119.324 167.975 107.101 171.081 94.6828 171.06ZM128.133 67.7744L149.366 46.5407C159.881 57.921 166.56 72.3138 168.461 87.6908C170.362 103.068 167.39 118.654 159.964 132.252C160.306 113.572 148.853 89.2977 128.172 67.7744H128.133Z" fill="currentColor"/>
  </g>
</svg>