<svg version="1.0" xmlns="http://www.w3.org/2000/svg"
 width="104.000000pt" height="111.000000pt" viewBox="0 0 104.000000 111.000000"
 preserveAspectRatio="xMidYMid meet">

<g transform="translate(0.000000,111.000000) scale(0.100000,-0.100000)"
fill="#178BFC" stroke="none">
<path d="M368 1067 c-135 -57 -222 -135 -280 -253 -50 -100 -63 -156 -63 -269
1 -217 112 -395 301 -482 254 -116 551 18 660 299 26 67 29 84 29 203 -1 113
-4 138 -24 190 -55 136 -143 233 -269 293 -72 35 -84 37 -187 40 -97 2 -117 0
-167 -21z m267 -11 c82 -21 205 -96 219 -132 4 -11 -16 -38 -61 -85 -36 -38
-70 -69 -74 -69 -4 0 -30 22 -58 49 -71 70 -179 137 -260 163 -39 13 -71 29
-71 36 0 40 203 66 305 38z m-200 -111 c29 -13 80 -41 112 -63 57 -39 143
-123 143 -140 0 -5 -9 -17 -20 -27 -20 -18 -25 -18 -108 6 -83 23 -169 -27
-192 -111 -9 -33 -9 -57 1 -106 11 -58 11 -65 -6 -84 -27 -30 -39 -25 -81 33
-93 129 -147 296 -125 391 29 126 134 164 276 101z m501 -130 c69 -124 81
-286 33 -429 -25 -73 -45 -94 -53 -54 -2 13 -9 50 -15 83 -11 65 -86 223 -132
282 -16 19 -29 41 -29 47 0 21 124 137 144 134 12 -2 32 -27 52 -63z m-806
-53 c0 -75 50 -202 120 -306 17 -25 35 -48 41 -51 5 -4 9 -16 9 -28 0 -25
-126 -148 -144 -141 -37 14 -101 173 -110 271 -10 109 33 293 68 293 12 0 16
-10 16 -38z m437 -67 c76 -30 114 -134 75 -205 -55 -101 -184 -105 -237 -7
-28 53 -17 139 22 179 17 16 46 34 64 38 19 4 35 8 36 9 2 1 20 -6 40 -14z
m220 -75 c62 -103 93 -191 100 -286 5 -62 3 -77 -17 -113 -26 -44 -86 -81
-133 -81 -39 0 -143 36 -205 72 -67 38 -172 134 -172 158 0 9 9 25 21 35 18
17 23 18 52 5 18 -7 55 -15 82 -17 40 -4 57 0 85 19 74 50 97 124 68 219 -10
34 -9 42 7 59 33 36 56 21 112 -70z m-385 -341 c70 -67 175 -130 256 -154 28
-9 52 -20 52 -25 0 -15 -68 -40 -134 -49 -112 -16 -244 19 -328 86 -71 57 -70
65 3 139 35 35 69 64 76 64 6 0 40 -27 75 -61z"/>
</g>
</svg>