<svg width="69" height="61" viewBox="0 0 69 61" fill="none" xmlns="http://www.w3.org/2000/svg">
<path d="M36.1364 15.5459L36.2287 15.5734L36.2327 15.5688C36.6703 15.6481 37.1045 15.3861 37.2331 14.952C38.4047 11.0152 42.0958 8.26509 46.2082 8.26509C46.6951 8.26509 47.09 7.87021 47.09 7.38335C47.09 6.89647 46.6951 6.50161 46.2082 6.50161C41.1541 6.50161 36.9069 9.8667 35.5432 14.4494C35.404 14.9162 35.6699 15.4067 36.1364 15.5459Z" fill="#1890FF" stroke="#F9FFF9" stroke-width="0.3"/>
<path d="M56.4522 43.2384H52.0618C51.6578 43.2384 51.3301 42.9107 51.3301 42.5067C51.3301 42.1027 51.6578 41.7749 52.0618 41.7749H56.4522C62.504 41.7749 67.4281 36.8509 67.4281 30.799C67.4281 24.7471 62.504 19.823 56.4522 19.823H56.3466C56.1344 19.823 55.9326 19.731 55.7936 19.5706C55.6546 19.4101 55.5918 19.1974 55.6222 18.9873C55.6875 18.5315 55.7204 18.0737 55.7204 17.6279C55.7204 12.3829 51.4528 8.1153 46.2079 8.1153C44.1674 8.1153 42.2215 8.75295 40.5803 9.95977C40.2196 10.2248 39.7074 10.1072 39.4989 9.71045C34.8509 0.859687 22.7107 -0.328881 16.4166 7.37051C13.7652 10.6142 12.7234 14.8336 13.5582 18.946C13.6502 19.4002 13.3026 19.8236 12.8411 19.8236H12.5479C6.496 19.8236 1.57193 24.7477 1.57193 30.7995C1.57193 36.8514 6.496 41.7755 12.5479 41.7755H16.9382C17.3422 41.7755 17.6699 42.1032 17.6699 42.5072C17.6699 42.9112 17.3422 43.239 16.9382 43.239H12.5479C5.6889 43.239 0.108398 37.6585 0.108398 30.7995C0.108398 24.1329 5.37995 18.6742 11.9735 18.3731C11.3541 14.1066 12.5385 9.80294 15.2835 6.44436C22.0222 -1.79961 34.9364 -0.875571 40.3955 8.31706C42.1371 7.22521 44.1299 6.65242 46.2076 6.65242C52.5622 6.65242 57.5976 12.061 57.157 18.3799C63.6897 18.7463 68.8913 24.1763 68.8913 30.799C68.8913 37.6585 63.3108 43.2384 56.4518 43.2384L56.4522 43.2384Z" fill="#1890FF"/>
<path d="M15.9584 42.0935C15.9584 52.2634 24.2321 60.5369 34.4019 60.5369C44.5718 60.5369 52.8454 52.2633 52.8454 42.0935C52.8454 31.9235 44.5718 23.65 34.4019 23.65C24.2319 23.65 15.9584 31.9237 15.9584 42.0935ZM17.7222 42.0935C17.7222 32.8966 25.2048 25.4138 34.4019 25.4138C43.5988 25.4138 51.0816 32.8964 51.0816 42.0935C51.0816 51.2904 43.5988 58.7731 34.4019 58.7731C25.205 58.7731 17.7222 51.2905 17.7222 42.0935Z" fill="#1890FF" stroke="#F9FFF9" stroke-width="0.3"/>
<path d="M34.0507 49.4577C34.0507 49.8364 34.3578 50.1434 34.7364 50.1434C35.115 50.1434 35.4221 49.8368 35.4221 49.4577V35.5291C35.4221 35.1505 35.115 34.8434 34.7364 34.8434C34.3578 34.8434 34.0507 35.1505 34.0507 35.5291V49.4577Z" fill="#1890FF" stroke="#483EA8" stroke-width="0.3"/>
<path d="M34.7365 36.5002L30.9358 40.3009L34.7365 36.5002ZM34.7365 36.5002L38.5373 40.301C38.671 40.4347 38.847 40.5018 39.0221 40.5018L34.7365 36.5002ZM29.966 40.301C30.2338 40.5688 30.6681 40.569 30.9357 40.301L39.0222 40.5018C39.197 40.5018 39.3731 40.4353 39.5071 40.301C39.7749 40.0331 39.7749 39.5991 39.507 39.3312L35.2214 35.0456C34.9536 34.7778 34.5192 34.7776 34.2516 35.0456C34.2516 35.0456 34.2515 35.0457 34.2515 35.0457L29.966 39.3312C29.6981 39.5991 29.6981 40.0331 29.966 40.301Z" fill="#1890FF" stroke="#483EA8" stroke-width="0.3"/>
</svg>
