<svg width="244" height="187" viewBox="0 0 244 187" fill="none" xmlns="http://www.w3.org/2000/svg">
<g clip-path="url(#clip0_3458_54531)">
<path d="M236.517 8.2334H7.30935C3.27251 8.2334 0 11.4272 0 15.3669V179.622C0 183.562 3.27251 186.756 7.30935 186.756H236.517C240.554 186.756 243.826 183.562 243.826 179.622V15.3669C243.826 11.4272 240.554 8.2334 236.517 8.2334Z" fill="#E4EBF7"/>
<path d="M6.53106 0H237.173C240.78 0 243.704 2.85369 243.704 6.3739V25.3681H0V6.3739C0 2.85369 2.92406 0 6.53106 0Z" fill="#253368"/>
<path d="M13.9604 17.2335C16.5349 17.2335 18.6219 15.1967 18.6219 12.6841C18.6219 10.1716 16.5349 8.13477 13.9604 8.13477C11.3859 8.13477 9.29883 10.1716 9.29883 12.6841C9.29883 15.1967 11.3859 17.2335 13.9604 17.2335Z" fill="#FF7946"/>
<path d="M31.371 17.2335C33.9455 17.2335 36.0326 15.1967 36.0326 12.6841C36.0326 10.1716 33.9455 8.13477 31.371 8.13477C28.7965 8.13477 26.7095 10.1716 26.7095 12.6841C26.7095 15.1967 28.7965 17.2335 31.371 17.2335Z" fill="#FAAD14"/>
<path d="M48.7841 17.2335C51.3586 17.2335 53.4457 15.1967 53.4457 12.6841C53.4457 10.1716 51.3586 8.13477 48.7841 8.13477C46.2096 8.13477 44.1226 10.1716 44.1226 12.6841C44.1226 15.1967 46.2096 17.2335 48.7841 17.2335Z" fill="#7CB305"/>
<path d="M230.476 42.2168H61.4327C59.028 42.2168 57.0786 44.1193 57.0786 46.4661V165.448C57.0786 167.795 59.028 169.697 61.4327 169.697H230.476C232.88 169.697 234.83 167.795 234.83 165.448V46.4661C234.83 44.1193 232.88 42.2168 230.476 42.2168Z" fill="white"/>
<path d="M80.9554 102.513L77.9565 100.312L80.9554 98.1152L83.9542 100.312L80.9554 102.513Z" fill="white"/>
<path d="M44.637 91.1094H13.6961C12.6065 91.1094 11.7231 91.9714 11.7231 93.0348V97.7807C11.7231 98.8441 12.6065 99.7062 13.6961 99.7062H44.637C45.7266 99.7062 46.6099 98.8441 46.6099 97.7807V93.0348C46.6099 91.9714 45.7266 91.1094 44.637 91.1094Z" fill="#ADC6FF"/>
<path d="M44.6669 107.66H13.6661C12.5931 107.66 11.7231 108.509 11.7231 109.556V114.1C11.7231 115.148 12.5931 115.997 13.6661 115.997H44.6669C45.74 115.997 46.6099 115.148 46.6099 114.1V109.556C46.6099 108.509 45.74 107.66 44.6669 107.66Z" fill="#1890FF"/>
<path d="M44.6669 123.874H13.6661C12.5931 123.874 11.7231 124.723 11.7231 125.77V130.314C11.7231 131.362 12.5931 132.211 13.6661 132.211H44.6669C45.74 132.211 46.6099 131.362 46.6099 130.314V125.77C46.6099 124.723 45.74 123.874 44.6669 123.874Z" fill="#1890FF"/>
<path d="M29.1667 77.0713C38.7853 77.0713 46.5828 69.4614 46.5828 60.0742C46.5828 50.687 38.7853 43.0771 29.1667 43.0771C19.548 43.0771 11.7505 50.687 11.7505 60.0742C11.7505 69.4614 19.548 77.0713 29.1667 77.0713Z" fill="white"/>
<path d="M29.1665 77.071C34.1862 77.0737 38.9501 74.9095 42.1797 71.1592C39.635 66.4445 34.624 63.4932 29.1638 63.4932C23.7037 63.4932 18.6927 66.4445 16.1479 71.1592C19.3792 74.9103 24.1451 77.0745 29.1665 77.071Z" fill="#253368"/>
<path d="M29.2591 64.1688C32.8766 64.1688 35.8092 61.3068 35.8092 57.7763C35.8092 54.2458 32.8766 51.3838 29.2591 51.3838C25.6416 51.3838 22.709 54.2458 22.709 57.7763C22.709 61.3068 25.6416 64.1688 29.2591 64.1688Z" fill="#253368"/>
<path d="M158.093 157.518C157.544 157.518 157.095 157.696 156.759 158.053C156.424 158.402 156.249 158.878 156.249 159.473H156.874C156.881 159.005 156.996 158.648 157.209 158.41C157.407 158.157 157.697 158.038 158.07 158.038C158.42 158.038 158.702 158.127 158.9 158.306C159.099 158.484 159.198 158.73 159.198 159.057C159.198 159.399 159.053 159.719 158.779 160.009C158.634 160.157 158.352 160.373 157.925 160.671C157.346 161.057 156.957 161.377 156.744 161.615C156.378 162.009 156.203 162.448 156.203 162.931H159.83V162.388H156.973C157.072 162.031 157.468 161.622 158.161 161.169C158.725 160.797 159.099 160.507 159.289 160.314C159.64 159.942 159.822 159.525 159.822 159.064C159.822 158.603 159.655 158.224 159.335 157.941C159.007 157.659 158.596 157.518 158.093 157.518Z" fill="#253368"/>
<path d="M162.585 157.518C161.93 157.518 161.442 157.793 161.115 158.358C160.825 158.834 160.68 159.473 160.68 160.276C160.68 161.08 160.825 161.719 161.115 162.195C161.442 162.753 161.93 163.035 162.585 163.035C163.233 163.035 163.721 162.753 164.056 162.195C164.345 161.719 164.49 161.08 164.49 160.276C164.49 159.473 164.345 158.834 164.056 158.358C163.721 157.793 163.233 157.518 162.585 157.518ZM162.585 158.038C163.073 158.038 163.424 158.291 163.637 158.804C163.789 159.161 163.873 159.652 163.873 160.276C163.873 160.894 163.789 161.384 163.637 161.749C163.424 162.254 163.073 162.515 162.585 162.515C162.098 162.515 161.747 162.254 161.534 161.749C161.381 161.384 161.305 160.894 161.305 160.276C161.305 159.652 161.381 159.161 161.534 158.804C161.747 158.291 162.098 158.038 162.585 158.038Z" fill="#253368"/>
<path d="M166.621 157.622C166.438 157.822 166.225 158.001 165.965 158.165C165.706 158.313 165.447 158.417 165.204 158.484V159.094C165.714 158.945 166.141 158.707 166.484 158.365V162.931H167.108V157.622H166.621Z" fill="#253368"/>
<path d="M168.186 157.622V158.179H171.119L169.092 162.931H169.755L171.759 158.12V157.622H168.186Z" fill="#253368"/>
<path d="M102.132 157.518C101.584 157.518 101.134 157.696 100.799 158.053C100.464 158.402 100.288 158.878 100.288 159.473H100.913C100.921 159.005 101.035 158.648 101.248 158.41C101.447 158.157 101.736 158.038 102.109 158.038C102.46 158.038 102.742 158.127 102.94 158.306C103.138 158.484 103.237 158.73 103.237 159.057C103.237 159.399 103.092 159.719 102.818 160.009C102.673 160.157 102.391 160.373 101.965 160.671C101.386 161.057 100.997 161.377 100.784 161.615C100.418 162.009 100.243 162.448 100.243 162.931H103.87V162.388H101.012C101.111 162.031 101.508 161.622 102.201 161.169C102.765 160.797 103.138 160.507 103.329 160.314C103.679 159.942 103.862 159.525 103.862 159.064C103.862 158.603 103.694 158.224 103.374 157.941C103.047 157.659 102.635 157.518 102.132 157.518Z" fill="#253368"/>
<path d="M106.625 157.518C105.97 157.518 105.482 157.793 105.154 158.358C104.865 158.834 104.72 159.473 104.72 160.276C104.72 161.08 104.865 161.719 105.154 162.195C105.482 162.753 105.97 163.035 106.625 163.035C107.273 163.035 107.76 162.753 108.095 162.195C108.385 161.719 108.53 161.08 108.53 160.276C108.53 159.473 108.385 158.834 108.095 158.358C107.76 157.793 107.273 157.518 106.625 157.518ZM106.625 158.038C107.113 158.038 107.463 158.291 107.676 158.804C107.829 159.161 107.913 159.652 107.913 160.276C107.913 160.894 107.829 161.384 107.676 161.749C107.463 162.254 107.113 162.515 106.625 162.515C106.137 162.515 105.787 162.254 105.573 161.749C105.421 161.384 105.345 160.894 105.345 160.276C105.345 159.652 105.421 159.161 105.573 158.804C105.787 158.291 106.137 158.038 106.625 158.038Z" fill="#253368"/>
<path d="M110.66 157.622C110.477 157.822 110.264 158.001 110.005 158.165C109.746 158.313 109.487 158.417 109.243 158.484V159.094C109.754 158.945 110.18 158.707 110.523 158.365V162.931H111.148V157.622H110.66Z" fill="#253368"/>
<path d="M112.766 157.622L112.477 160.552H113.071C113.178 160.343 113.345 160.18 113.559 160.076C113.764 159.964 113.993 159.912 114.252 159.912C114.648 159.912 114.961 160.024 115.182 160.262C115.41 160.492 115.532 160.819 115.532 161.243C115.532 161.615 115.402 161.92 115.159 162.158C114.907 162.396 114.595 162.515 114.214 162.515C113.879 162.515 113.597 162.433 113.383 162.277C113.139 162.098 113.002 161.838 112.972 161.503H112.355C112.393 161.987 112.598 162.373 112.979 162.656C113.315 162.909 113.726 163.035 114.206 163.035C114.74 163.035 115.197 162.872 115.562 162.552C115.951 162.21 116.149 161.771 116.149 161.236C116.149 160.663 115.982 160.217 115.662 159.89C115.342 159.57 114.922 159.414 114.404 159.414C114.153 159.414 113.924 159.451 113.711 159.54C113.475 159.629 113.277 159.763 113.124 159.942H113.094L113.277 158.165H115.928V157.622H112.766Z" fill="#253368"/>
<path d="M130.022 157.518C129.474 157.518 129.024 157.696 128.689 158.053C128.354 158.402 128.179 158.878 128.179 159.473H128.803C128.811 159.005 128.925 158.648 129.139 158.41C129.337 158.157 129.626 158.038 130 158.038C130.35 158.038 130.632 158.127 130.83 158.306C131.028 158.484 131.127 158.73 131.127 159.057C131.127 159.399 130.983 159.719 130.708 160.009C130.563 160.157 130.282 160.373 129.855 160.671C129.276 161.057 128.887 161.377 128.674 161.615C128.308 162.009 128.133 162.448 128.133 162.931H131.76V162.388H128.902C129.001 162.031 129.398 161.622 130.091 161.169C130.655 160.797 131.028 160.507 131.219 160.314C131.569 159.942 131.752 159.525 131.752 159.064C131.752 158.603 131.584 158.224 131.264 157.941C130.937 157.659 130.525 157.518 130.022 157.518Z" fill="#253368"/>
<path d="M134.515 157.518C133.86 157.518 133.372 157.793 133.044 158.358C132.755 158.834 132.61 159.473 132.61 160.276C132.61 161.08 132.755 161.719 133.044 162.195C133.372 162.753 133.86 163.035 134.515 163.035C135.163 163.035 135.65 162.753 135.986 162.195C136.275 161.719 136.42 161.08 136.42 160.276C136.42 159.473 136.275 158.834 135.986 158.358C135.65 157.793 135.163 157.518 134.515 157.518ZM134.515 158.038C135.003 158.038 135.353 158.291 135.567 158.804C135.719 159.161 135.803 159.652 135.803 160.276C135.803 160.894 135.719 161.384 135.567 161.749C135.353 162.254 135.003 162.515 134.515 162.515C134.027 162.515 133.677 162.254 133.464 161.749C133.311 161.384 133.235 160.894 133.235 160.276C133.235 159.652 133.311 159.161 133.464 158.804C133.677 158.291 134.027 158.038 134.515 158.038Z" fill="#253368"/>
<path d="M138.55 157.622C138.368 157.822 138.154 158.001 137.895 158.165C137.636 158.313 137.377 158.417 137.133 158.484V159.094C137.644 158.945 138.07 158.707 138.413 158.365V162.931H139.038V157.622H138.55Z" fill="#253368"/>
<path d="M142.218 157.518C141.601 157.518 141.113 157.793 140.755 158.35C140.412 158.878 140.245 159.57 140.245 160.418C140.245 161.228 140.397 161.86 140.717 162.314C141.052 162.79 141.548 163.035 142.211 163.035C142.744 163.035 143.178 162.857 143.529 162.515C143.872 162.173 144.047 161.734 144.047 161.213C144.047 160.693 143.887 160.276 143.575 159.949C143.254 159.622 142.835 159.458 142.317 159.458C141.997 159.458 141.715 159.533 141.472 159.689C141.212 159.838 141.022 160.053 140.885 160.328H140.854C140.847 160.232 140.847 160.165 140.847 160.135C140.847 159.533 140.961 159.035 141.205 158.648C141.449 158.231 141.784 158.031 142.211 158.031C142.843 158.031 143.216 158.328 143.338 158.938H143.956C143.803 157.986 143.224 157.518 142.218 157.518ZM142.195 159.964C142.569 159.964 142.866 160.076 143.094 160.314C143.315 160.537 143.43 160.834 143.43 161.213C143.43 161.593 143.315 161.905 143.087 162.158C142.858 162.396 142.561 162.522 142.195 162.522C141.814 162.522 141.517 162.396 141.289 162.143C141.06 161.905 140.953 161.6 140.953 161.228C140.953 160.856 141.068 160.559 141.304 160.321C141.54 160.083 141.837 159.964 142.195 159.964Z" fill="#253368"/>
<path d="M70.4673 53.6709C69.8958 53.6709 69.4539 53.8122 69.1339 54.1022C68.8367 54.3625 68.692 54.6897 68.692 55.0763C68.692 55.3589 68.7605 55.5969 68.8977 55.7902C69.0425 55.9984 69.2558 56.1546 69.5453 56.2513V56.2661C69.2558 56.3331 69.0196 56.4892 68.8215 56.7272C68.6081 56.98 68.5015 57.2775 68.5015 57.6195C68.5015 58.088 68.6691 58.4673 69.0044 58.7498C69.3472 59.0398 69.8349 59.1886 70.4673 59.1886C71.0921 59.1886 71.5798 59.0398 71.9303 58.7498C72.2655 58.4673 72.4332 58.088 72.4332 57.6195C72.4332 57.2775 72.3265 56.98 72.1131 56.7272C71.915 56.4892 71.6712 56.3331 71.3893 56.2661V56.2513C71.6712 56.1546 71.8846 55.9984 72.0369 55.7902C72.1741 55.5969 72.2427 55.3589 72.2427 55.0763C72.2427 54.6897 72.0903 54.3625 71.8007 54.1022C71.4807 53.8122 71.0312 53.6709 70.4673 53.6709ZM70.4673 54.1691C70.8483 54.1691 71.1531 54.2658 71.374 54.4591C71.5569 54.6227 71.656 54.8384 71.656 55.0987C71.656 55.3664 71.5722 55.5894 71.4045 55.753C71.1988 55.9464 70.8864 56.0505 70.4673 56.0505C70.0406 56.0505 69.7282 55.9464 69.5301 55.753C69.3625 55.5894 69.2787 55.3664 69.2787 55.0987C69.2787 54.8384 69.3701 54.6227 69.5606 54.4591C69.7739 54.2658 70.0787 54.1691 70.4673 54.1691ZM70.4673 56.5264C70.9016 56.5264 71.2445 56.6305 71.4883 56.8462C71.7017 57.0395 71.816 57.2998 71.816 57.6195C71.816 57.9318 71.7017 58.1847 71.4883 58.378C71.2445 58.5862 70.9092 58.6903 70.4673 58.6903C70.0254 58.6903 69.6825 58.5862 69.4539 58.3855C69.2253 58.1921 69.1187 57.9318 69.1187 57.6195C69.1187 57.2998 69.2253 57.0395 69.4539 56.8462C69.6901 56.6305 70.0254 56.5264 70.4673 56.5264Z" fill="#253368"/>
<path d="M75.0361 53.6709C74.3808 53.6709 73.8931 53.946 73.5655 54.5112C73.276 54.9871 73.1312 55.6266 73.1312 56.4297C73.1312 57.2328 73.276 57.8724 73.5655 58.3483C73.8931 58.906 74.3808 59.1886 75.0361 59.1886C75.6837 59.1886 76.1714 58.906 76.5067 58.3483C76.7962 57.8724 76.941 57.2328 76.941 56.4297C76.941 55.6266 76.7962 54.9871 76.5067 54.5112C76.1714 53.946 75.6837 53.6709 75.0361 53.6709ZM75.0361 54.1914C75.5237 54.1914 75.8742 54.4443 76.0876 54.9574C76.24 55.3143 76.3238 55.8051 76.3238 56.4297C76.3238 57.0469 76.24 57.5377 76.0876 57.9021C75.8742 58.4078 75.5237 58.668 75.0361 58.668C74.5484 58.668 74.1979 58.4078 73.9846 57.9021C73.8322 57.5377 73.756 57.0469 73.756 56.4297C73.756 55.8051 73.8322 55.3143 73.9846 54.9574C74.1979 54.4443 74.5484 54.1914 75.0361 54.1914Z" fill="#253368"/>
<path d="M70.5438 74.9834C69.9266 74.9834 69.4389 75.2585 69.0808 75.8163C68.7379 76.3442 68.5703 77.0358 68.5703 77.8835C68.5703 78.6941 68.7227 79.3261 69.0427 79.7798C69.378 80.2557 69.8733 80.5011 70.5362 80.5011C71.0695 80.5011 71.5038 80.3226 71.8543 79.9805C72.1972 79.6385 72.3725 79.1997 72.3725 78.6792C72.3725 78.1587 72.2125 77.7422 71.9001 77.415C71.58 77.0878 71.161 76.9243 70.6428 76.9243C70.3228 76.9243 70.0409 76.9986 69.7971 77.1548C69.538 77.3035 69.3475 77.5191 69.2104 77.7943H69.1799C69.1723 77.6976 69.1723 77.6307 69.1723 77.6009C69.1723 76.9986 69.2866 76.5004 69.5304 76.1137C69.7742 75.6973 70.1095 75.4965 70.5362 75.4965C71.1686 75.4965 71.5419 75.7939 71.6639 76.4037H72.281C72.1287 75.4519 71.5496 74.9834 70.5438 74.9834ZM70.5209 77.4299C70.8943 77.4299 71.1914 77.5415 71.42 77.7794C71.641 78.0025 71.7553 78.2999 71.7553 78.6792C71.7553 79.0584 71.641 79.3708 71.4124 79.6236C71.1838 79.8616 70.8867 79.988 70.5209 79.988C70.1399 79.988 69.8428 79.8616 69.6142 79.6087C69.3856 79.3708 69.2789 79.0659 69.2789 78.6941C69.2789 78.3223 69.3932 78.0248 69.6294 77.7869C69.8656 77.5489 70.1628 77.4299 70.5209 77.4299Z" fill="#253368"/>
<path d="M75.0364 74.9834C74.3811 74.9834 73.8934 75.2585 73.5658 75.8237C73.2762 76.2996 73.1315 76.9391 73.1315 77.7422C73.1315 78.5453 73.2762 79.1849 73.5658 79.6608C73.8934 80.2185 74.3811 80.5011 75.0364 80.5011C75.684 80.5011 76.1717 80.2185 76.5069 79.6608C76.7965 79.1849 76.9412 78.5453 76.9412 77.7422C76.9412 76.9391 76.7965 76.2996 76.5069 75.8237C76.1717 75.2585 75.684 74.9834 75.0364 74.9834ZM75.0364 75.5039C75.524 75.5039 75.8745 75.7568 76.0879 76.2699C76.2402 76.6268 76.3241 77.1176 76.3241 77.7422C76.3241 78.3594 76.2402 78.8502 76.0879 79.2146C75.8745 79.7203 75.524 79.9805 75.0364 79.9805C74.5487 79.9805 74.1982 79.7203 73.9849 79.2146C73.8325 78.8502 73.7563 78.3594 73.7563 77.7422C73.7563 77.1176 73.8325 76.6268 73.9849 76.2699C74.1982 75.7568 74.5487 75.5039 75.0364 75.5039Z" fill="#253368"/>
<path d="M70.5435 117.611C69.9949 117.611 69.5453 117.79 69.21 118.147C68.8748 118.496 68.6995 118.972 68.6995 119.567H69.3243C69.332 119.099 69.4462 118.742 69.6596 118.504C69.8577 118.251 70.1472 118.132 70.5206 118.132C70.8711 118.132 71.153 118.221 71.3511 118.4C71.5492 118.578 71.6483 118.823 71.6483 119.151C71.6483 119.493 71.5035 119.812 71.2292 120.102C71.0845 120.251 70.8025 120.467 70.3758 120.764C69.7967 121.151 69.4081 121.471 69.1948 121.709C68.8291 122.103 68.6538 122.542 68.6538 123.025H72.2807V122.482H69.4234C69.5224 122.125 69.9187 121.716 70.612 121.263C71.1759 120.891 71.5492 120.601 71.7397 120.407C72.0902 120.036 72.2731 119.619 72.2731 119.158C72.2731 118.697 72.1055 118.318 71.7855 118.035C71.4578 117.753 71.0464 117.611 70.5435 117.611Z" fill="#253368"/>
<path d="M75.036 117.611C74.3807 117.611 73.8931 117.886 73.5655 118.452C73.2759 118.928 73.1311 119.567 73.1311 120.37C73.1311 121.173 73.2759 121.813 73.5655 122.289C73.8931 122.846 74.3807 123.129 75.036 123.129C75.6837 123.129 76.1713 122.846 76.5066 122.289C76.7962 121.813 76.9409 121.173 76.9409 120.37C76.9409 119.567 76.7962 118.928 76.5066 118.452C76.1713 117.886 75.6837 117.611 75.036 117.611ZM75.036 118.132C75.5237 118.132 75.8742 118.385 76.0875 118.898C76.2399 119.255 76.3237 119.746 76.3237 120.37C76.3237 120.987 76.2399 121.478 76.0875 121.843C75.8742 122.348 75.5237 122.608 75.036 122.608C74.5484 122.608 74.1979 122.348 73.9845 121.843C73.8321 121.478 73.7559 120.987 73.7559 120.37C73.7559 119.746 73.8321 119.255 73.9845 118.898C74.1979 118.385 74.5484 118.132 75.036 118.132Z" fill="#253368"/>
<path d="M70.4674 138.927C69.8121 138.927 69.3245 139.202 68.9968 139.767C68.7073 140.243 68.5625 140.882 68.5625 141.686C68.5625 142.489 68.7073 143.128 68.9968 143.604C69.3245 144.162 69.8121 144.444 70.4674 144.444C71.1151 144.444 71.6027 144.162 71.938 143.604C72.2275 143.128 72.3723 142.489 72.3723 141.686C72.3723 140.882 72.2275 140.243 71.938 139.767C71.6027 139.202 71.1151 138.927 70.4674 138.927ZM70.4674 139.447C70.955 139.447 71.3055 139.7 71.5189 140.213C71.6713 140.57 71.7551 141.061 71.7551 141.686C71.7551 142.303 71.6713 142.794 71.5189 143.158C71.3055 143.664 70.955 143.924 70.4674 143.924C69.9797 143.924 69.6292 143.664 69.4159 143.158C69.2635 142.794 69.1873 142.303 69.1873 141.686C69.1873 141.061 69.2635 140.57 69.4159 140.213C69.6292 139.7 69.9797 139.447 70.4674 139.447Z" fill="#253368"/>
<path d="M71.1073 96.4029L68.3643 99.9277V100.508H71.0997V101.712H71.694V100.508H72.5779V100.009H71.694V96.4029H71.1073ZM71.0768 97.1986H71.0997V100.009H68.89L71.0768 97.1986Z" fill="#253368"/>
<path d="M75.036 96.2988C74.3807 96.2988 73.8931 96.574 73.5654 97.1391C73.2759 97.615 73.1311 98.2546 73.1311 99.0577C73.1311 99.8608 73.2759 100.5 73.5654 100.976C73.8931 101.534 74.3807 101.816 75.036 101.816C75.6837 101.816 76.1713 101.534 76.5066 100.976C76.7961 100.5 76.9409 99.8608 76.9409 99.0577C76.9409 98.2546 76.7961 97.615 76.5066 97.1391C76.1713 96.574 75.6837 96.2988 75.036 96.2988ZM75.036 96.8194C75.5237 96.8194 75.8742 97.0722 76.0875 97.5853C76.2399 97.9422 76.3237 98.433 76.3237 99.0577C76.3237 99.6749 76.2399 100.166 76.0875 100.53C75.8742 101.036 75.5237 101.296 75.036 101.296C74.5484 101.296 74.1979 101.036 73.9845 100.53C73.8321 100.166 73.7559 99.6749 73.7559 99.0577C73.7559 98.433 73.8321 97.9422 73.9845 97.5853C74.1979 97.0722 74.5484 96.8194 75.036 96.8194Z" fill="#253368"/>
<path d="M185.803 157.518C185.255 157.518 184.805 157.696 184.47 158.053C184.135 158.402 183.959 158.878 183.959 159.473H184.584C184.592 159.005 184.706 158.648 184.919 158.41C185.117 158.157 185.407 158.038 185.78 158.038C186.131 158.038 186.413 158.127 186.611 158.306C186.809 158.484 186.908 158.73 186.908 159.057C186.908 159.399 186.763 159.719 186.489 160.009C186.344 160.157 186.062 160.373 185.636 160.671C185.057 161.057 184.668 161.377 184.455 161.615C184.089 162.009 183.914 162.448 183.914 162.931H187.54V162.388H184.683C184.782 162.031 185.178 161.622 185.872 161.169C186.436 160.797 186.809 160.507 187 160.314C187.35 159.942 187.533 159.525 187.533 159.064C187.533 158.603 187.365 158.224 187.045 157.941C186.718 157.659 186.306 157.518 185.803 157.518Z" fill="#253368"/>
<path d="M190.296 157.518C189.641 157.518 189.153 157.793 188.825 158.358C188.536 158.834 188.391 159.473 188.391 160.276C188.391 161.08 188.536 161.719 188.825 162.195C189.153 162.753 189.641 163.035 190.296 163.035C190.943 163.035 191.431 162.753 191.766 162.195C192.056 161.719 192.201 161.08 192.201 160.276C192.201 159.473 192.056 158.834 191.766 158.358C191.431 157.793 190.943 157.518 190.296 157.518ZM190.296 158.038C190.783 158.038 191.134 158.291 191.347 158.804C191.5 159.161 191.584 159.652 191.584 160.276C191.584 160.894 191.5 161.384 191.347 161.749C191.134 162.254 190.783 162.515 190.296 162.515C189.808 162.515 189.458 162.254 189.244 161.749C189.092 161.384 189.016 160.894 189.016 160.276C189.016 159.652 189.092 159.161 189.244 158.804C189.458 158.291 189.808 158.038 190.296 158.038Z" fill="#253368"/>
<path d="M194.331 157.622C194.148 157.822 193.935 158.001 193.676 158.165C193.417 158.313 193.158 158.417 192.914 158.484V159.094C193.424 158.945 193.851 158.707 194.194 158.365V162.931H194.819V157.622H194.331Z" fill="#253368"/>
<path d="M197.923 157.518C197.351 157.518 196.909 157.659 196.589 157.949C196.292 158.209 196.147 158.536 196.147 158.923C196.147 159.206 196.216 159.444 196.353 159.637C196.498 159.845 196.711 160.001 197.001 160.098V160.113C196.711 160.18 196.475 160.336 196.277 160.574C196.064 160.827 195.957 161.124 195.957 161.466C195.957 161.935 196.125 162.314 196.46 162.597C196.803 162.887 197.29 163.035 197.923 163.035C198.548 163.035 199.035 162.887 199.386 162.597C199.721 162.314 199.889 161.935 199.889 161.466C199.889 161.124 199.782 160.827 199.569 160.574C199.371 160.336 199.127 160.18 198.845 160.113V160.098C199.127 160.001 199.34 159.845 199.492 159.637C199.63 159.444 199.698 159.206 199.698 158.923C199.698 158.536 199.546 158.209 199.256 157.949C198.936 157.659 198.487 157.518 197.923 157.518ZM197.923 158.016C198.304 158.016 198.609 158.112 198.83 158.306C199.012 158.469 199.111 158.685 199.111 158.945C199.111 159.213 199.028 159.436 198.86 159.6C198.654 159.793 198.342 159.897 197.923 159.897C197.496 159.897 197.184 159.793 196.986 159.6C196.818 159.436 196.734 159.213 196.734 158.945C196.734 158.685 196.826 158.469 197.016 158.306C197.229 158.112 197.534 158.016 197.923 158.016ZM197.923 160.373C198.357 160.373 198.7 160.477 198.944 160.693C199.157 160.886 199.271 161.146 199.271 161.466C199.271 161.779 199.157 162.031 198.944 162.225C198.7 162.433 198.365 162.537 197.923 162.537C197.481 162.537 197.138 162.433 196.909 162.232C196.681 162.039 196.574 161.779 196.574 161.466C196.574 161.146 196.681 160.886 196.909 160.693C197.146 160.477 197.481 160.373 197.923 160.373Z" fill="#253368"/>
<path d="M213.694 157.518C213.145 157.518 212.696 157.696 212.36 158.053C212.025 158.402 211.85 158.878 211.85 159.473H212.475C212.482 159.005 212.597 158.648 212.81 158.41C213.008 158.157 213.298 158.038 213.671 158.038C214.021 158.038 214.303 158.127 214.502 158.306C214.7 158.484 214.799 158.73 214.799 159.057C214.799 159.399 214.654 159.719 214.38 160.009C214.235 160.157 213.953 160.373 213.526 160.671C212.947 161.057 212.559 161.377 212.345 161.615C211.979 162.009 211.804 162.448 211.804 162.931H215.431V162.388H212.574C212.673 162.031 213.069 161.622 213.762 161.169C214.326 160.797 214.7 160.507 214.89 160.314C215.241 159.942 215.423 159.525 215.423 159.064C215.423 158.603 215.256 158.224 214.936 157.941C214.608 157.659 214.197 157.518 213.694 157.518Z" fill="#253368"/>
<path d="M218.186 157.518C217.531 157.518 217.043 157.793 216.716 158.358C216.426 158.834 216.282 159.473 216.282 160.276C216.282 161.08 216.426 161.719 216.716 162.195C217.043 162.753 217.531 163.035 218.186 163.035C218.834 163.035 219.322 162.753 219.657 162.195C219.947 161.719 220.091 161.08 220.091 160.276C220.091 159.473 219.947 158.834 219.657 158.358C219.322 157.793 218.834 157.518 218.186 157.518ZM218.186 158.038C218.674 158.038 219.025 158.291 219.238 158.804C219.39 159.161 219.474 159.652 219.474 160.276C219.474 160.894 219.39 161.384 219.238 161.749C219.025 162.254 218.674 162.515 218.186 162.515C217.699 162.515 217.348 162.254 217.135 161.749C216.983 161.384 216.906 160.894 216.906 160.276C216.906 159.652 216.983 159.161 217.135 158.804C217.348 158.291 217.699 158.038 218.186 158.038Z" fill="#253368"/>
<path d="M222.222 157.622C222.039 157.822 221.826 158.001 221.567 158.165C221.307 158.313 221.048 158.417 220.805 158.484V159.094C221.315 158.945 221.742 158.707 222.085 158.365V162.931H222.709V157.622H222.222Z" fill="#253368"/>
<path d="M225.752 157.518C225.219 157.518 224.777 157.689 224.434 158.038C224.084 158.38 223.916 158.811 223.916 159.339C223.916 159.853 224.069 160.269 224.381 160.589C224.701 160.923 225.12 161.094 225.646 161.094C225.966 161.094 226.248 161.013 226.492 160.864C226.743 160.708 226.941 160.492 227.078 160.224H227.109C227.109 160.314 227.116 160.381 227.116 160.418C227.116 161.013 226.994 161.511 226.758 161.905C226.507 162.314 226.172 162.522 225.752 162.522C225.112 162.522 224.739 162.217 224.625 161.615H224.008C224.152 162.559 224.731 163.035 225.745 163.035C226.354 163.035 226.842 162.753 227.208 162.202C227.543 161.667 227.718 160.983 227.718 160.135C227.718 159.317 227.558 158.678 227.238 158.231C226.903 157.756 226.408 157.518 225.752 157.518ZM225.768 158.031C226.141 158.031 226.446 158.157 226.674 158.41C226.895 158.648 227.01 158.953 227.01 159.325C227.01 159.689 226.888 159.994 226.659 160.232C226.415 160.47 226.118 160.589 225.768 160.589C225.387 160.589 225.09 160.47 224.869 160.239C224.64 160.016 224.533 159.711 224.533 159.339C224.533 158.953 224.64 158.64 224.869 158.395C225.097 158.15 225.394 158.031 225.768 158.031Z" fill="#253368"/>
<path d="M87.0168 41.9717C87.4318 41.9717 87.7713 42.2874 87.7968 42.6861L87.7983 42.7344V169.355C87.7983 169.776 87.4484 170.117 87.0168 170.117C86.6018 170.117 86.2624 169.802 86.2369 169.403L86.2354 169.355V42.7344C86.2354 42.3131 86.5852 41.9717 87.0168 41.9717Z" fill="#A3B5D6"/>
<path d="M134.589 87.1055C135.068 86.7077 135.788 86.7903 136.162 87.2743L136.197 87.3224L166.841 131.828L190.882 115.461C191.03 115.36 191.202 115.296 191.381 115.276L191.448 115.271L222.28 113.712C222.881 113.682 223.393 114.132 223.424 114.718C223.454 115.285 223.022 115.771 222.451 115.829L222.393 115.834L191.871 117.377L167.179 134.19C166.696 134.518 166.037 134.412 165.687 133.959L165.652 133.911L135.07 89.4945L99.2208 119.234C98.7785 119.601 98.1229 119.563 97.7277 119.158L97.6864 119.113C97.3105 118.681 97.3494 118.041 97.7648 117.656L97.8108 117.615L134.589 87.1055Z" fill="#FF7946"/>
<path d="M218.033 60.4014C218.369 59.9152 219.046 59.7873 219.544 60.1157C220.026 60.4332 220.164 61.0608 219.869 61.5415L219.837 61.5906L192.406 101.223C192.023 101.777 191.22 101.849 190.74 101.385L190.697 101.341L158.856 67.0131L136.515 81.6191C136.351 81.7262 136.161 81.7876 135.965 81.7974L135.891 81.7987L98.1633 81.2011C97.5622 81.1916 97.0828 80.7083 97.0924 80.1217C97.102 79.554 97.5661 79.0976 98.1408 79.0773L98.1986 79.0768L135.585 79.669L158.426 64.7372C158.858 64.4546 159.431 64.5111 159.797 64.8647L159.838 64.9068L191.379 98.9107L218.033 60.4014Z" fill="#FAAD14"/>
<path d="M170.746 85.8559C171.009 85.6324 171.366 85.5468 171.704 85.6228L171.767 85.639L192.036 91.4646L221.829 86.865C222.403 86.7762 222.944 87.1437 223.064 87.6927L223.074 87.7482C223.165 88.309 222.788 88.8367 222.226 88.9532L222.169 88.9635L192.134 93.6005C191.998 93.6216 191.858 93.617 191.724 93.5873L191.657 93.5703L171.723 87.8413L137.512 116.833C137.167 117.125 136.675 117.175 136.278 116.964L136.224 116.933L95.7696 92.4072C95.259 92.0976 95.1022 91.4427 95.4194 90.9443C95.7261 90.4625 96.3634 90.3035 96.8668 90.5731L96.9184 90.6025L136.691 114.715L170.746 85.8559Z" fill="#1890FF"/>
</g>
<defs>
<clipPath id="clip0_3458_54531">
<rect width="244" height="187" fill="white"/>
</clipPath>
</defs>
</svg>
