<svg width="720" height="900" viewBox="0 0 720 900" fill="none" xmlns="http://www.w3.org/2000/svg">
<g opacity="0.7" clip-path="url(#clip0_489_122292)">
<rect width="1406.25" height="900" transform="translate(-419)" fill="#002766"/>
<rect x="-184.625" y="-153.75" width="234.375" height="234.375" rx="25.8621" stroke="#0D3F87" stroke-width="2.42457"/>
<rect x="49.75" y="-153.75" width="234.375" height="234.375" rx="25.8621" stroke="#0D3F87" stroke-width="2.42457"/>
<rect x="284.125" y="-153.75" width="234.375" height="234.375" rx="25.8621" stroke="#0D3F87" stroke-width="2.42457"/>
<rect x="518.5" y="-153.75" width="234.375" height="234.375" rx="25.8621" stroke="#0D3F87" stroke-width="2.42457"/>
<rect x="-184.625" y="80.6245" width="234.375" height="234.375" rx="25.8621" stroke="#0D3F87" stroke-width="2.42457"/>
<rect x="49.75" y="80.6248" width="234.375" height="234.375" rx="25.8621" stroke="#0D3F87" stroke-width="2.42457"/>
<rect x="284.125" y="80.6248" width="234.375" height="234.375" rx="25.8621" stroke="#0D3F87" stroke-width="2.42457"/>
<rect x="518.5" y="80.6245" width="234.375" height="234.375" rx="25.8621" stroke="#0D3F87" stroke-width="2.42457"/>
<rect x="-184.625" y="315" width="234.375" height="234.375" rx="25.8621" stroke="#0D3F87" stroke-width="2.42457"/>
<rect x="49.75" y="315" width="234.375" height="234.375" rx="25.8621" stroke="#0D3F87" stroke-width="2.42457"/>
<rect x="284.125" y="315" width="234.375" height="234.375" rx="25.8621" stroke="#0D3F87" stroke-width="2.42457"/>
<rect x="518.5" y="315" width="234.375" height="234.375" rx="25.8621" stroke="#0D3F87" stroke-width="2.42457"/>
<rect x="-184.625" y="549.375" width="234.375" height="234.375" rx="25.8621" stroke="#0D3F87" stroke-width="2.42457"/>
<rect x="49.75" y="549.376" width="234.375" height="234.375" rx="25.8621" stroke="#0D3F87" stroke-width="2.42457"/>
<rect x="284.125" y="549.376" width="234.375" height="234.375" rx="25.8621" stroke="#0D3F87" stroke-width="2.42457"/>
<rect x="518.5" y="549.375" width="234.375" height="234.375" rx="25.8621" stroke="#0D3F87" stroke-width="2.42457"/>
<rect x="-184.625" y="783.75" width="234.375" height="234.375" rx="25.8621" stroke="#0D3F87" stroke-width="2.42457"/>
<rect x="49.75" y="783.75" width="234.375" height="234.375" rx="25.8621" stroke="#0D3F87" stroke-width="2.42457"/>
<rect x="284.125" y="783.75" width="234.375" height="234.375" rx="25.8621" stroke="#0D3F87" stroke-width="2.42457"/>
<rect x="518.5" y="783.75" width="234.375" height="234.375" rx="25.8621" stroke="#0D3F87" stroke-width="2.42457"/>
<path d="M518.5 -134.353V54.7632C518.5 69.0465 530.079 80.6253 544.362 80.6253H727.013C741.296 80.6253 752.875 92.2041 752.875 106.487V289.138C752.875 303.421 764.454 315 778.737 315H961.388C975.671 315 987.25 326.579 987.25 340.862V523.513C987.25 537.796 998.829 549.375 1013.11 549.375H1195.76C1210.05 549.375 1221.63 560.954 1221.63 575.237V757.888C1221.63 772.171 1233.2 783.75 1247.49 783.75H1436.6M284.125 -134.353V54.7632C284.125 69.0465 295.704 80.6253 309.987 80.6253H492.638C506.921 80.6253 518.5 92.2041 518.5 106.487V289.138C518.5 303.421 530.079 315 544.362 315H727.013C741.296 315 752.875 326.579 752.875 340.862V523.513C752.875 537.796 741.296 549.375 727.013 549.375H544.362C530.079 549.375 518.5 537.796 518.5 523.513V337.63L518.274 336.102C516.538 324.388 506.595 315.642 494.756 315.414L473.241 315H309.987C295.704 315 284.125 326.579 284.125 340.862V523.513C284.125 537.796 295.704 549.375 309.987 549.375H494.254L500.394 549.785C510.583 550.464 518.5 558.927 518.5 569.138V588.977M518.5 568.772V757.888C518.5 772.171 530.079 783.75 544.362 783.75H727.013C741.296 783.75 752.875 795.329 752.875 809.612V992.263C752.875 1006.55 764.454 1018.13 778.737 1018.13H961.388C975.671 1018.13 987.25 1029.7 987.25 1043.99V1226.64C987.25 1240.92 998.829 1252.5 1013.11 1252.5H1195.76C1210.05 1252.5 1221.63 1264.08 1221.63 1278.36V1461.01C1221.63 1475.3 1233.2 1486.88 1247.49 1486.88H1436.6" stroke="url(#paint0_linear_489_122292)" stroke-opacity="0.8" stroke-width="2.42457"/>
<rect x="-419" y="1314.12" width="1314.12" height="703.125" transform="rotate(-90 -419 1314.12)" fill="url(#paint1_linear_489_122292)"/>
<rect x="895.117" y="1487.07" width="1314.12" height="703.125" transform="rotate(-180 895.117 1487.07)" fill="url(#paint2_linear_489_122292)"/>
<ellipse cx="499.104" cy="-158.405" rx="874.461" ry="745.151" fill="url(#paint3_radial_489_122292)"/>
</g>
<defs>
<linearGradient id="paint0_linear_489_122292" x1="284.125" y1="-134.353" x2="1410.74" y2="1259.77" gradientUnits="userSpaceOnUse">
<stop offset="0.0819437" stop-color="#0D3F87"/>
<stop offset="0.208333" stop-color="#1155B5"/>
<stop offset="0.526042" stop-color="#40A9FF"/>
<stop offset="0.9375" stop-color="#096DD9"/>
</linearGradient>
<linearGradient id="paint1_linear_489_122292" x1="238.058" y1="1314.12" x2="238.058" y2="2017.24" gradientUnits="userSpaceOnUse">
<stop stop-color="#002766"/>
<stop offset="1" stop-color="#002766" stop-opacity="0"/>
</linearGradient>
<linearGradient id="paint2_linear_489_122292" x1="1552.18" y1="1487.07" x2="1552.18" y2="2190.19" gradientUnits="userSpaceOnUse">
<stop stop-color="#002766"/>
<stop offset="0.713542" stop-color="#002766" stop-opacity="0.7"/>
<stop offset="1" stop-color="#002766" stop-opacity="0"/>
</linearGradient>
<radialGradient id="paint3_radial_489_122292" cx="0" cy="0" r="1" gradientUnits="userSpaceOnUse" gradientTransform="translate(499.104 -158.405) rotate(90) scale(745.151 874.461)">
<stop stop-color="#002766"/>
<stop offset="1" stop-color="#002766" stop-opacity="0"/>
</radialGradient>
<clipPath id="clip0_489_122292">
<rect width="1406.25" height="900" fill="white" transform="translate(-419)"/>
</clipPath>
</defs>
</svg>
