<svg viewBox="0 0 733 1024" fill="none" xmlns="http://www.w3.org/2000/svg">
<path d="M0.000317577 777.001C67.148 760.099 136.148 759.303 201.373 774.679C266.598 790.055 326.2 821.167 375.318 865.477C424.436 909.787 461.679 966.04 484.009 1029.65" stroke="#666464"/>
<path d="M347.017 1024.76C322.85 964.964 314.404 899.986 322.48 836.007C330.557 772.029 354.888 711.177 393.159 659.238C431.431 607.299 482.371 566 541.136 539.268C599.9 512.537 664.536 501.261 728.895 506.514" stroke="#666464"/>
<path d="M257 8.01788C306.173 89.9698 375.764 157.765 458.973 204.779C542.182 251.793 636.163 276.419 731.736 276.251L731.248 0.000976562" stroke="#666464"/>
<path d="M0.00122445 442.196C53.8266 437.023 105.903 421.566 153.258 396.709C200.612 371.852 242.317 338.082 275.992 297.325C309.666 256.569 334.65 209.625 349.518 159.174C364.385 108.723 368.845 55.7534 362.643 3.28864" stroke="#666464"/>
</svg>
